<svg xmlns="http://www.w3.org/2000/svg" width="388" height="206" viewBox="0 0 388 206">
<style>
:root {
  --green: #024E04;
  --blue: #192443;
  --gold: #B47C16;
  --red: #3F0404;
  --color-ffffff: #FFFFFF;
}
</style>
<defs>
  <linearGradient id="grad0" x1="0.19" y1="-0.29" x2="0.81" y2="1.29">
    <stop offset="0" stop-color="#10AEFF"/>
    <stop offset="0.21" stop-color="#09FF66"/>
    <stop offset="0.54" stop-color="#FFF215"/>
    <stop offset="0.97" stop-color="#FF005F"/>
  </linearGradient>
<mask id="strokemask1" maskUnits="userSpaceOnUse" x="-11" y="-11" width="407" height="224"><rect x="-11" y="-11" width="407" height="224" fill="white"/><path d="M 367.93 16.36 C 376.12 22.85 376.57 32.42 377.55 42.12 C 381.91 85.43 354.29 115.96 308.44 113.09 C 307.47 131.07 312.84 171.06 311.61 190.62 C 304.68 193.22 269.63 190.25 263.65 185.88 C 263.59 185.46 263.52 185.05 263.45 184.63 C 263.45 184.63 263.95 183.9 263.95 183.9 C 263.96 183.89 263.96 183.87 263.96 183.85 C 248.74 182.46 238.94 181.62 223.48 185.46 C 221.38 185.98 212.81 189.26 211.74 187.04 C 205.8 172.57 206.08 167.36 203.15 152.56 C 200.22 137.77 199.11 129.99 198.76 130.74 C 190.51 147.26 184.34 186.47 184.34 186.47 C 184.34 186.47 154.66 190.51 150.46 191.21 C 146.84 191.82 121.81 195.75 122.16 194.87 C 123.52 191.76 125.36 188.07 127.55 183.96 C 103.76 182.39 91.73 182.91 64.46 183.48 C 50.67 183.76 35.68 182.56 22.11 185.13 C 20.23 185.48 6.83 188.06 7 185.6 C 9.26 149.79 22.26 115.77 18.75 79.55 C 17.49 66.45 16.4 30.26 19.68 24.45 C 51.65 23.79 74.3 30.02 122.52 25.25 C 122.52 25.25 135.63 25.88 139.68 25.55 C 139.71 26.88 139.6 29.24 139.4 32.3 C 153.54 32.49 178.42 32.83 178.42 32.83 C 178.42 32.83 197.17 78.08 197.24 77.95 C 206.88 62.26 209.62 46.64 215.62 29.09 C 216.33 26.99 243.56 29.38 252.17 29.38 C 254.1 29.38 264.76 27.91 270.06 27.67 C 269.78 22.95 269.37 19.26 268.85 16.66 C 268.85 5.54 350.13 2.25 367.93 16.36 Z M 230.43 108.88 C 230.43 108.88 244.59 145.29 255.32 159.29 C 256.81 161.23 262.26 170.97 264.87 177.62 C 268.47 148.86 272.02 70.42 270.35 33.07 C 255.44 61.07 230.43 108.88 230.43 108.88 Z M 136.35 69.83 C 115.53 68.31 94.51 66.79 73.61 66.49 C 71.74 66.47 67.24 64.49 67.29 66.85 C 67.38 70.85 59.69 93.69 61.95 93.65 C 67.44 93.53 106.39 90.92 106 92.83 C 105.54 95.97 106.83 122.02 104.85 122.06 C 95.68 122.25 69.35 120.15 57.57 119.35 C 57.66 123.73 54.29 138.85 55.38 143.67 C 72.09 143.33 93.67 140.1 110.36 139.75 C 114.67 139.66 134.65 137.43 134.11 138.6 C 130.4 149.56 131.11 160.72 134.28 171.67 C 146.18 150.4 161.25 124.78 162.66 113.41 C 154.23 96.44 143.09 67.08 137.77 52.68 C 137.27 58.57 136.75 64.58 136.35 69.83 Z M 306.32 45.87 C 306.32 45.87 305.97 45.77 305.97 45.77 C 304.73 55.24 303.32 64.93 302.38 74.4 C 302.38 83.33 336.16 75.68 341.19 56.65 C 346.44 36.8 314.92 44.08 306.32 45.87 Z" fill="black"/></mask>
  <filter id="fx2" x="-50%" y="-50%" width="200%" height="200%" color-interpolation-filters="sRGB">
<feGaussianBlur in="SourceAlpha" stdDeviation="1" result="s0b"/>
<feOffset in="s0b" dx="5" dy="7" result="s0o"/>
<feFlood flood-color="#000000" flood-opacity="0.93" result="s0c"/>
<feComposite in="s0c" in2="s0o" operator="in" result="s0"/>
<feMerge result="base">
<feMergeNode in="s0"/>
<feMergeNode in="SourceGraphic"/>
</feMerge>
  </filter>
  <pattern id="pat257b805755394acba6d598aa0f6c04dc" width="156.2" height="270" patternUnits="userSpaceOnUse" patternTransform="matrix(0.5 0 0 0.5 150 112.5)">
<g class="layer-group">
<g class="layer-b">
<g class="layer-a">
<g class="layer-path">
<path d="M 21.7 83 C 21.7 83 82.3 83 82.3 83 C 82.3 83 21.7 83 21.7 83 Z M 17.3 75.5 C 17.3 75.5 86.6 75.5 86.6 75.5 C 86.6 75.5 17.3 75.5 17.3 75.5 Z M 13 68 C 13 68 90.9 68 90.9 68 C 90.9 68 13 68 13 68 Z M 8.7 60.5 C 8.7 60.5 95.3 60.5 95.3 60.5 C 95.3 60.5 8.7 60.5 8.7 60.5 Z M 4.3 53 C 4.3 53 99.6 53 99.6 53 C 99.6 53 4.3 53 4.3 53 Z" fill="#000000" fill-opacity="0" stroke="url(#grad4)" stroke-width="1.9" stroke-linecap="round" stroke-linejoin="miter"/>
</g>
<g class="layer-path">
<path d="M 0 45.5 C 0 45.5 103.9 45.5 103.9 45.5 C 103.9 45.5 0 45.5 0 45.5 Z M 4.3 38 C 4.3 38 99.6 38 99.6 38 C 99.6 38 4.3 38 4.3 38 Z M 8.7 30.5 C 8.7 30.5 95.3 30.5 95.3 30.5 C 95.3 30.5 8.7 30.5 8.7 30.5 Z M 13 23 C 13 23 90.9 23 90.9 23 C 90.9 23 13 23 13 23 Z M 17.3 15.5 C 17.3 15.5 86.6 15.5 86.6 15.5 C 86.6 15.5 17.3 15.5 17.3 15.5 Z M 21.7 8 C 21.7 8 82.3 8 82.3 8 C 82.3 8 21.7 8 21.7 8 Z" fill="#000000" fill-opacity="0" stroke="url(#grad5)" stroke-width="1.9" stroke-linecap="round" stroke-linejoin="miter"/>
</g>
</g>
<g class="layer-a">
<g class="layer-path">
<path d="M 112.83 -44.44 C 112.83 -44.44 82.53 8.05 82.53 8.05 C 82.53 8.05 112.83 -44.44 112.83 -44.44 Z M 121.53 -44.5 C 121.53 -44.5 86.88 15.52 86.88 15.52 C 86.88 15.52 121.53 -44.5 121.53 -44.5 Z M 130.18 -44.47 C 130.18 -44.47 91.23 22.99 91.23 22.99 C 91.23 22.99 130.18 -44.47 130.18 -44.47 Z M 138.82 -44.44 C 138.82 -44.44 95.52 30.55 95.52 30.55 C 95.52 30.55 138.82 -44.44 138.82 -44.44 Z M 147.52 -44.5 C 147.52 -44.5 99.87 38.03 99.87 38.03 C 99.87 38.03 147.52 -44.5 147.52 -44.5 Z" fill="#000000" fill-opacity="0" stroke="url(#grad6)" stroke-width="1.9" stroke-linecap="round" stroke-linejoin="miter"/>
</g>
<g class="layer-path">
<path d="M 156.16 -44.48 C 156.16 -44.48 104.21 45.5 104.21 45.5 C 104.21 45.5 156.16 -44.48 156.16 -44.48 Z M 160.51 -37 C 160.51 -37 112.86 45.53 112.86 45.53 C 112.86 45.53 160.51 -37 160.51 -37 Z M 164.8 -29.44 C 164.8 -29.44 121.5 45.55 121.5 45.55 C 121.5 45.55 164.8 -29.44 164.8 -29.44 Z M 169.15 -21.97 C 169.15 -21.97 130.2 45.49 130.2 45.49 C 130.2 45.49 169.15 -21.97 169.15 -21.97 Z M 173.49 -14.5 C 173.49 -14.5 138.84 45.52 138.84 45.52 C 138.84 45.52 173.49 -14.5 173.49 -14.5 Z M 177.79 -6.94 C 177.79 -6.94 147.49 45.55 147.49 45.55 C 147.49 45.55 177.79 -6.94 177.79 -6.94 Z" fill="#000000" fill-opacity="0" stroke="url(#grad7)" stroke-width="1.9" stroke-linecap="round" stroke-linejoin="miter"/>
</g>
</g>
<g class="layer-a">
<g class="layer-path">
<path d="M 147.45 45.58 C 147.45 45.58 177.75 98.07 177.75 98.07 C 177.75 98.07 147.45 45.58 147.45 45.58 Z M 138.75 45.52 C 138.75 45.52 173.4 105.54 173.4 105.54 C 173.4 105.54 138.75 45.52 138.75 45.52 Z M 130.11 45.55 C 130.11 45.55 169.06 113.01 169.06 113.01 C 169.06 113.01 130.11 45.55 130.11 45.55 Z M 121.46 45.58 C 121.46 45.58 164.76 120.57 164.76 120.57 C 164.76 120.57 121.46 45.58 121.46 45.58 Z M 112.77 45.52 C 112.77 45.52 160.42 128.05 160.42 128.05 C 160.42 128.05 112.77 45.52 112.77 45.52 Z" fill="#000000" fill-opacity="0" stroke="url(#grad8)" stroke-width="1.9" stroke-linecap="round" stroke-linejoin="miter"/>
</g>
<g class="layer-path">
<path d="M 104.12 45.54 C 104.12 45.54 156.07 135.52 156.07 135.52 C 156.07 135.52 104.12 45.54 104.12 45.54 Z M 99.77 53.02 C 99.77 53.02 147.42 135.55 147.42 135.55 C 147.42 135.55 99.77 53.02 99.77 53.02 Z M 95.48 60.58 C 95.48 60.58 138.78 135.57 138.78 135.57 C 138.78 135.57 95.48 60.58 95.48 60.58 Z M 91.13 68.05 C 91.13 68.05 130.08 135.51 130.08 135.51 C 130.08 135.51 91.13 68.05 91.13 68.05 Z M 86.79 75.52 C 86.79 75.52 121.44 135.54 121.44 135.54 C 121.44 135.54 86.79 75.52 86.79 75.52 Z M 82.49 83.08 C 82.49 83.08 112.79 135.57 112.79 135.57 C 112.79 135.57 82.49 83.08 82.49 83.08 Z" fill="#000000" fill-opacity="0" stroke="url(#grad9)" stroke-width="1.9" stroke-linecap="round" stroke-linejoin="miter"/>
</g>
</g>
</g>
<g class="layer-b">
<g class="layer-a">
<g class="layer-path">
<path d="M 177.7 83 C 177.7 83 238.3 83 238.3 83 C 238.3 83 177.7 83 177.7 83 Z M 173.3 75.5 C 173.3 75.5 242.6 75.5 242.6 75.5 C 242.6 75.5 173.3 75.5 173.3 75.5 Z M 169 68 C 169 68 246.9 68 246.9 68 C 246.9 68 169 68 169 68 Z M 164.7 60.5 C 164.7 60.5 251.3 60.5 251.3 60.5 C 251.3 60.5 164.7 60.5 164.7 60.5 Z M 160.3 53 C 160.3 53 255.6 53 255.6 53 C 255.6 53 160.3 53 160.3 53 Z" fill="#000000" fill-opacity="0" stroke="url(#grad10)" stroke-width="1.9" stroke-linecap="round" stroke-linejoin="miter"/>
</g>
<g class="layer-path">
<path d="M 156 45.5 C 156 45.5 259.9 45.5 259.9 45.5 C 259.9 45.5 156 45.5 156 45.5 Z M 160.3 38 C 160.3 38 255.6 38 255.6 38 C 255.6 38 160.3 38 160.3 38 Z M 164.7 30.5 C 164.7 30.5 251.3 30.5 251.3 30.5 C 251.3 30.5 164.7 30.5 164.7 30.5 Z M 169 23 C 169 23 246.9 23 246.9 23 C 246.9 23 169 23 169 23 Z M 173.3 15.5 C 173.3 15.5 242.6 15.5 242.6 15.5 C 242.6 15.5 173.3 15.5 173.3 15.5 Z M 177.7 8 C 177.7 8 238.3 8 238.3 8 C 238.3 8 177.7 8 177.7 8 Z" fill="#000000" fill-opacity="0" stroke="url(#grad11)" stroke-width="1.9" stroke-linecap="round" stroke-linejoin="miter"/>
</g>
</g>
<g class="layer-a">
<g class="layer-path">
<path d="M 268.83 -44.44 C 268.83 -44.44 238.53 8.05 238.53 8.05 C 238.53 8.05 268.83 -44.44 268.83 -44.44 Z M 277.53 -44.5 C 277.53 -44.5 242.88 15.52 242.88 15.52 C 242.88 15.52 277.53 -44.5 277.53 -44.5 Z M 286.18 -44.47 C 286.18 -44.47 247.23 22.99 247.23 22.99 C 247.23 22.99 286.18 -44.47 286.18 -44.47 Z M 294.82 -44.44 C 294.82 -44.44 251.52 30.55 251.52 30.55 C 251.52 30.55 294.82 -44.44 294.82 -44.44 Z M 303.52 -44.5 C 303.52 -44.5 255.87 38.03 255.87 38.03 C 255.87 38.03 303.52 -44.5 303.52 -44.5 Z" fill="#000000" fill-opacity="0" stroke="url(#grad12)" stroke-width="1.9" stroke-linecap="round" stroke-linejoin="miter"/>
</g>
<g class="layer-path">
<path d="M 312.16 -44.48 C 312.16 -44.48 260.21 45.5 260.21 45.5 C 260.21 45.5 312.16 -44.48 312.16 -44.48 Z M 316.51 -37 C 316.51 -37 268.86 45.53 268.86 45.53 C 268.86 45.53 316.51 -37 316.51 -37 Z M 320.8 -29.44 C 320.8 -29.44 277.5 45.55 277.5 45.55 C 277.5 45.55 320.8 -29.44 320.8 -29.44 Z M 325.15 -21.97 C 325.15 -21.97 286.2 45.49 286.2 45.49 C 286.2 45.49 325.15 -21.97 325.15 -21.97 Z M 329.49 -14.5 C 329.49 -14.5 294.84 45.52 294.84 45.52 C 294.84 45.52 329.49 -14.5 329.49 -14.5 Z M 333.79 -6.94 C 333.79 -6.94 303.49 45.55 303.49 45.55 C 303.49 45.55 333.79 -6.94 333.79 -6.94 Z" fill="#000000" fill-opacity="0" stroke="url(#grad13)" stroke-width="1.9" stroke-linecap="round" stroke-linejoin="miter"/>
</g>
</g>
<g class="layer-a">
<g class="layer-path">
<path d="M 303.45 45.58 C 303.45 45.58 333.75 98.07 333.75 98.07 C 333.75 98.07 303.45 45.58 303.45 45.58 Z M 294.75 45.52 C 294.75 45.52 329.4 105.54 329.4 105.54 C 329.4 105.54 294.75 45.52 294.75 45.52 Z M 286.11 45.55 C 286.11 45.55 325.06 113.01 325.06 113.01 C 325.06 113.01 286.11 45.55 286.11 45.55 Z M 277.46 45.58 C 277.46 45.58 320.76 120.57 320.76 120.57 C 320.76 120.57 277.46 45.58 277.46 45.58 Z M 268.77 45.52 C 268.77 45.52 316.42 128.05 316.42 128.05 C 316.42 128.05 268.77 45.52 268.77 45.52 Z" fill="#000000" fill-opacity="0" stroke="url(#grad14)" stroke-width="1.9" stroke-linecap="round" stroke-linejoin="miter"/>
</g>
<g class="layer-path">
<path d="M 260.12 45.54 C 260.12 45.54 312.07 135.52 312.07 135.52 C 312.07 135.52 260.12 45.54 260.12 45.54 Z M 255.77 53.02 C 255.77 53.02 303.42 135.55 303.42 135.55 C 303.42 135.55 255.77 53.02 255.77 53.02 Z M 251.48 60.58 C 251.48 60.58 294.78 135.57 294.78 135.57 C 294.78 135.57 251.48 60.58 251.48 60.58 Z M 247.13 68.05 C 247.13 68.05 286.08 135.51 286.08 135.51 C 286.08 135.51 247.13 68.05 247.13 68.05 Z M 242.79 75.52 C 242.79 75.52 277.44 135.54 277.44 135.54 C 277.44 135.54 242.79 75.52 242.79 75.52 Z M 238.49 83.08 C 238.49 83.08 268.79 135.57 268.79 135.57 C 268.79 135.57 238.49 83.08 238.49 83.08 Z" fill="#000000" fill-opacity="0" stroke="url(#grad15)" stroke-width="1.9" stroke-linecap="round" stroke-linejoin="miter"/>
</g>
</g>
</g>
<g class="layer-b">
<g class="layer-a">
<g class="layer-path">
<path d="M 99.8 218 C 99.8 218 160.4 218 160.4 218 C 160.4 218 99.8 218 99.8 218 Z M 95.4 210.5 C 95.4 210.5 164.7 210.5 164.7 210.5 C 164.7 210.5 95.4 210.5 95.4 210.5 Z M 91.1 203 C 91.1 203 169 203 169 203 C 169 203 91.1 203 91.1 203 Z M 86.8 195.5 C 86.8 195.5 173.4 195.5 173.4 195.5 C 173.4 195.5 86.8 195.5 86.8 195.5 Z M 82.4 188 C 82.4 188 177.7 188 177.7 188 C 177.7 188 82.4 188 82.4 188 Z" fill="#000000" fill-opacity="0" stroke="url(#grad16)" stroke-width="1.9" stroke-linecap="round" stroke-linejoin="miter"/>
</g>
<g class="layer-path">
<path d="M 78.1 180.5 C 78.1 180.5 182 180.5 182 180.5 C 182 180.5 78.1 180.5 78.1 180.5 Z M 82.4 173 C 82.4 173 177.7 173 177.7 173 C 177.7 173 82.4 173 82.4 173 Z M 86.8 165.5 C 86.8 165.5 173.4 165.5 173.4 165.5 C 173.4 165.5 86.8 165.5 86.8 165.5 Z M 91.1 158 C 91.1 158 169 158 169 158 C 169 158 91.1 158 91.1 158 Z M 95.4 150.5 C 95.4 150.5 164.7 150.5 164.7 150.5 C 164.7 150.5 95.4 150.5 95.4 150.5 Z M 99.8 143 C 99.8 143 160.4 143 160.4 143 C 160.4 143 99.8 143 99.8 143 Z" fill="#000000" fill-opacity="0" stroke="url(#grad17)" stroke-width="1.9" stroke-linecap="round" stroke-linejoin="miter"/>
</g>
</g>
<g class="layer-a">
<g class="layer-path">
<path d="M 190.93 90.56 C 190.93 90.56 160.63 143.05 160.63 143.05 C 160.63 143.05 190.93 90.56 190.93 90.56 Z M 199.63 90.5 C 199.63 90.5 164.98 150.52 164.98 150.52 C 164.98 150.52 199.63 90.5 199.63 90.5 Z M 208.28 90.53 C 208.28 90.53 169.33 157.99 169.33 157.99 C 169.33 157.99 208.28 90.53 208.28 90.53 Z M 216.92 90.56 C 216.92 90.56 173.62 165.55 173.62 165.55 C 173.62 165.55 216.92 90.56 216.92 90.56 Z M 225.62 90.5 C 225.62 90.5 177.97 173.03 177.97 173.03 C 177.97 173.03 225.62 90.5 225.62 90.5 Z" fill="#000000" fill-opacity="0" stroke="url(#grad18)" stroke-width="1.9" stroke-linecap="round" stroke-linejoin="miter"/>
</g>
<g class="layer-path">
<path d="M 234.26 90.52 C 234.26 90.52 182.31 180.5 182.31 180.5 C 182.31 180.5 234.26 90.52 234.26 90.52 Z M 238.61 98 C 238.61 98 190.96 180.53 190.96 180.53 C 190.96 180.53 238.61 98 238.61 98 Z M 242.9 105.56 C 242.9 105.56 199.6 180.55 199.6 180.55 C 199.6 180.55 242.9 105.56 242.9 105.56 Z M 247.25 113.03 C 247.25 113.03 208.3 180.49 208.3 180.49 C 208.3 180.49 247.25 113.03 247.25 113.03 Z M 251.59 120.5 C 251.59 120.5 216.94 180.52 216.94 180.52 C 216.94 180.52 251.59 120.5 251.59 120.5 Z M 255.89 128.06 C 255.89 128.06 225.59 180.55 225.59 180.55 C 225.59 180.55 255.89 128.06 255.89 128.06 Z" fill="#000000" fill-opacity="0" stroke="url(#grad19)" stroke-width="1.9" stroke-linecap="round" stroke-linejoin="miter"/>
</g>
</g>
<g class="layer-a">
<g class="layer-path">
<path d="M 225.55 180.58 C 225.55 180.58 255.85 233.07 255.85 233.07 C 255.85 233.07 225.55 180.58 225.55 180.58 Z M 216.85 180.52 C 216.85 180.52 251.5 240.54 251.5 240.54 C 251.5 240.54 216.85 180.52 216.85 180.52 Z M 208.21 180.55 C 208.21 180.55 247.16 248.01 247.16 248.01 C 247.16 248.01 208.21 180.55 208.21 180.55 Z M 199.56 180.58 C 199.56 180.58 242.86 255.57 242.86 255.57 C 242.86 255.57 199.56 180.58 199.56 180.58 Z M 190.87 180.52 C 190.87 180.52 238.52 263.05 238.52 263.05 C 238.52 263.05 190.87 180.52 190.87 180.52 Z" fill="#000000" fill-opacity="0" stroke="url(#grad20)" stroke-width="1.9" stroke-linecap="round" stroke-linejoin="miter"/>
</g>
<g class="layer-path">
<path d="M 182.22 180.54 C 182.22 180.54 234.17 270.52 234.17 270.52 C 234.17 270.52 182.22 180.54 182.22 180.54 Z M 177.87 188.02 C 177.87 188.02 225.52 270.55 225.52 270.55 C 225.52 270.55 177.87 188.02 177.87 188.02 Z M 173.58 195.58 C 173.58 195.58 216.88 270.57 216.88 270.57 C 216.88 270.57 173.58 195.58 173.58 195.58 Z M 169.23 203.05 C 169.23 203.05 208.18 270.51 208.18 270.51 C 208.18 270.51 169.23 203.05 169.23 203.05 Z M 164.89 210.52 C 164.89 210.52 199.54 270.54 199.54 270.54 C 199.54 270.54 164.89 210.52 164.89 210.52 Z M 160.59 218.08 C 160.59 218.08 190.89 270.57 190.89 270.57 C 190.89 270.57 160.59 218.08 160.59 218.08 Z" fill="#000000" fill-opacity="0" stroke="url(#grad21)" stroke-width="1.9" stroke-linecap="round" stroke-linejoin="miter"/>
</g>
</g>
</g>
<g class="layer-b">
<g class="layer-a">
<g class="layer-path">
<path d="M 21.7 353 C 21.7 353 82.3 353 82.3 353 C 82.3 353 21.7 353 21.7 353 Z M 17.3 345.5 C 17.3 345.5 86.6 345.5 86.6 345.5 C 86.6 345.5 17.3 345.5 17.3 345.5 Z M 13 338 C 13 338 90.9 338 90.9 338 C 90.9 338 13 338 13 338 Z M 8.7 330.5 C 8.7 330.5 95.3 330.5 95.3 330.5 C 95.3 330.5 8.7 330.5 8.7 330.5 Z M 4.3 323 C 4.3 323 99.6 323 99.6 323 C 99.6 323 4.3 323 4.3 323 Z" fill="#000000" fill-opacity="0" stroke="url(#grad22)" stroke-width="1.9" stroke-linecap="round" stroke-linejoin="miter"/>
</g>
<g class="layer-path">
<path d="M 0 315.5 C 0 315.5 103.9 315.5 103.9 315.5 C 103.9 315.5 0 315.5 0 315.5 Z M 4.3 308 C 4.3 308 99.6 308 99.6 308 C 99.6 308 4.3 308 4.3 308 Z M 8.7 300.5 C 8.7 300.5 95.3 300.5 95.3 300.5 C 95.3 300.5 8.7 300.5 8.7 300.5 Z M 13 293 C 13 293 90.9 293 90.9 293 C 90.9 293 13 293 13 293 Z M 17.3 285.5 C 17.3 285.5 86.6 285.5 86.6 285.5 C 86.6 285.5 17.3 285.5 17.3 285.5 Z M 21.7 278 C 21.7 278 82.3 278 82.3 278 C 82.3 278 21.7 278 21.7 278 Z" fill="#000000" fill-opacity="0" stroke="url(#grad23)" stroke-width="1.9" stroke-linecap="round" stroke-linejoin="miter"/>
</g>
</g>
<g class="layer-a">
<g class="layer-path">
<path d="M 112.83 225.56 C 112.83 225.56 82.53 278.05 82.53 278.05 C 82.53 278.05 112.83 225.56 112.83 225.56 Z M 121.53 225.5 C 121.53 225.5 86.88 285.52 86.88 285.52 C 86.88 285.52 121.53 225.5 121.53 225.5 Z M 130.18 225.53 C 130.18 225.53 91.23 292.99 91.23 292.99 C 91.23 292.99 130.18 225.53 130.18 225.53 Z M 138.82 225.56 C 138.82 225.56 95.52 300.55 95.52 300.55 C 95.52 300.55 138.82 225.56 138.82 225.56 Z M 147.52 225.5 C 147.52 225.5 99.87 308.03 99.87 308.03 C 99.87 308.03 147.52 225.5 147.52 225.5 Z" fill="#000000" fill-opacity="0" stroke="url(#grad24)" stroke-width="1.9" stroke-linecap="round" stroke-linejoin="miter"/>
</g>
<g class="layer-path">
<path d="M 156.16 225.52 C 156.16 225.52 104.21 315.5 104.21 315.5 C 104.21 315.5 156.16 225.52 156.16 225.52 Z M 160.51 233 C 160.51 233 112.86 315.53 112.86 315.53 C 112.86 315.53 160.51 233 160.51 233 Z M 164.8 240.56 C 164.8 240.56 121.5 315.55 121.5 315.55 C 121.5 315.55 164.8 240.56 164.8 240.56 Z M 169.15 248.03 C 169.15 248.03 130.2 315.49 130.2 315.49 C 130.2 315.49 169.15 248.03 169.15 248.03 Z M 173.49 255.5 C 173.49 255.5 138.84 315.52 138.84 315.52 C 138.84 315.52 173.49 255.5 173.49 255.5 Z M 177.79 263.06 C 177.79 263.06 147.49 315.55 147.49 315.55 C 147.49 315.55 177.79 263.06 177.79 263.06 Z" fill="#000000" fill-opacity="0" stroke="url(#grad25)" stroke-width="1.9" stroke-linecap="round" stroke-linejoin="miter"/>
</g>
</g>
<g class="layer-a">
<g class="layer-path">
<path d="M 147.45 315.58 C 147.45 315.58 177.75 368.07 177.75 368.07 C 177.75 368.07 147.45 315.58 147.45 315.58 Z M 138.75 315.52 C 138.75 315.52 173.4 375.54 173.4 375.54 C 173.4 375.54 138.75 315.52 138.75 315.52 Z M 130.11 315.55 C 130.11 315.55 169.06 383.01 169.06 383.01 C 169.06 383.01 130.11 315.55 130.11 315.55 Z M 121.46 315.58 C 121.46 315.58 164.76 390.57 164.76 390.57 C 164.76 390.57 121.46 315.58 121.46 315.58 Z M 112.77 315.52 C 112.77 315.52 160.42 398.05 160.42 398.05 C 160.42 398.05 112.77 315.52 112.77 315.52 Z" fill="#000000" fill-opacity="0" stroke="url(#grad26)" stroke-width="1.9" stroke-linecap="round" stroke-linejoin="miter"/>
</g>
<g class="layer-path">
<path d="M 104.12 315.54 C 104.12 315.54 156.07 405.52 156.07 405.52 C 156.07 405.52 104.12 315.54 104.12 315.54 Z M 99.77 323.02 C 99.77 323.02 147.42 405.55 147.42 405.55 C 147.42 405.55 99.77 323.02 99.77 323.02 Z M 95.48 330.58 C 95.48 330.58 138.78 405.57 138.78 405.57 C 138.78 405.57 95.48 330.58 95.48 330.58 Z M 91.13 338.05 C 91.13 338.05 130.08 405.51 130.08 405.51 C 130.08 405.51 91.13 338.05 91.13 338.05 Z M 86.79 345.52 C 86.79 345.52 121.44 405.54 121.44 405.54 C 121.44 405.54 86.79 345.52 86.79 345.52 Z M 82.49 353.08 C 82.49 353.08 112.79 405.57 112.79 405.57 C 112.79 405.57 82.49 353.08 82.49 353.08 Z" fill="#000000" fill-opacity="0" stroke="url(#grad27)" stroke-width="1.9" stroke-linecap="round" stroke-linejoin="miter"/>
</g>
</g>
</g>
<g class="layer-b">
<g class="layer-a">
<g class="layer-path">
<path d="M -56.4 218 C -56.4 218 4.2 218 4.2 218 C 4.2 218 -56.4 218 -56.4 218 Z M -60.8 210.5 C -60.8 210.5 8.5 210.5 8.5 210.5 C 8.5 210.5 -60.8 210.5 -60.8 210.5 Z M -65.1 203 C -65.1 203 12.8 203 12.8 203 C 12.8 203 -65.1 203 -65.1 203 Z M -69.4 195.5 C -69.4 195.5 17.2 195.5 17.2 195.5 C 17.2 195.5 -69.4 195.5 -69.4 195.5 Z M -73.8 188 C -73.8 188 21.5 188 21.5 188 C 21.5 188 -73.8 188 -73.8 188 Z" fill="#000000" fill-opacity="0" stroke="url(#grad28)" stroke-width="1.9" stroke-linecap="round" stroke-linejoin="miter"/>
</g>
<g class="layer-path">
<path d="M -78.1 180.5 C -78.1 180.5 25.8 180.5 25.8 180.5 C 25.8 180.5 -78.1 180.5 -78.1 180.5 Z M -73.8 173 C -73.8 173 21.5 173 21.5 173 C 21.5 173 -73.8 173 -73.8 173 Z M -69.4 165.5 C -69.4 165.5 17.2 165.5 17.2 165.5 C 17.2 165.5 -69.4 165.5 -69.4 165.5 Z M -65.1 158 C -65.1 158 12.8 158 12.8 158 C 12.8 158 -65.1 158 -65.1 158 Z M -60.8 150.5 C -60.8 150.5 8.5 150.5 8.5 150.5 C 8.5 150.5 -60.8 150.5 -60.8 150.5 Z M -56.4 143 C -56.4 143 4.2 143 4.2 143 C 4.2 143 -56.4 143 -56.4 143 Z" fill="#000000" fill-opacity="0" stroke="url(#grad29)" stroke-width="1.9" stroke-linecap="round" stroke-linejoin="miter"/>
</g>
</g>
<g class="layer-a">
<g class="layer-path">
<path d="M 34.73 90.56 C 34.73 90.56 4.43 143.05 4.43 143.05 C 4.43 143.05 34.73 90.56 34.73 90.56 Z M 43.43 90.5 C 43.43 90.5 8.78 150.52 8.78 150.52 C 8.78 150.52 43.43 90.5 43.43 90.5 Z M 52.08 90.53 C 52.08 90.53 13.13 157.99 13.13 157.99 C 13.13 157.99 52.08 90.53 52.08 90.53 Z M 60.72 90.56 C 60.72 90.56 17.42 165.55 17.42 165.55 C 17.42 165.55 60.72 90.56 60.72 90.56 Z M 69.42 90.5 C 69.42 90.5 21.77 173.03 21.77 173.03 C 21.77 173.03 69.42 90.5 69.42 90.5 Z" fill="#000000" fill-opacity="0" stroke="url(#grad30)" stroke-width="1.9" stroke-linecap="round" stroke-linejoin="miter"/>
</g>
<g class="layer-path">
<path d="M 78.06 90.52 C 78.06 90.52 26.11 180.5 26.11 180.5 C 26.11 180.5 78.06 90.52 78.06 90.52 Z M 82.41 98 C 82.41 98 34.76 180.53 34.76 180.53 C 34.76 180.53 82.41 98 82.41 98 Z M 86.7 105.56 C 86.7 105.56 43.4 180.55 43.4 180.55 C 43.4 180.55 86.7 105.56 86.7 105.56 Z M 91.05 113.03 C 91.05 113.03 52.1 180.49 52.1 180.49 C 52.1 180.49 91.05 113.03 91.05 113.03 Z M 95.39 120.5 C 95.39 120.5 60.74 180.52 60.74 180.52 C 60.74 180.52 95.39 120.5 95.39 120.5 Z M 99.69 128.06 C 99.69 128.06 69.39 180.55 69.39 180.55 C 69.39 180.55 99.69 128.06 99.69 128.06 Z" fill="#000000" fill-opacity="0" stroke="url(#grad31)" stroke-width="1.9" stroke-linecap="round" stroke-linejoin="miter"/>
</g>
</g>
<g class="layer-a">
<g class="layer-path">
<path d="M 69.35 180.58 C 69.35 180.58 99.65 233.07 99.65 233.07 C 99.65 233.07 69.35 180.58 69.35 180.58 Z M 60.65 180.52 C 60.65 180.52 95.3 240.54 95.3 240.54 C 95.3 240.54 60.65 180.52 60.65 180.52 Z M 52.01 180.55 C 52.01 180.55 90.96 248.01 90.96 248.01 C 90.96 248.01 52.01 180.55 52.01 180.55 Z M 43.36 180.58 C 43.36 180.58 86.66 255.57 86.66 255.57 C 86.66 255.57 43.36 180.58 43.36 180.58 Z M 34.67 180.52 C 34.67 180.52 82.32 263.05 82.32 263.05 C 82.32 263.05 34.67 180.52 34.67 180.52 Z" fill="#000000" fill-opacity="0" stroke="url(#grad32)" stroke-width="1.9" stroke-linecap="round" stroke-linejoin="miter"/>
</g>
<g class="layer-path">
<path d="M 26.02 180.54 C 26.02 180.54 77.97 270.52 77.97 270.52 C 77.97 270.52 26.02 180.54 26.02 180.54 Z M 21.67 188.02 C 21.67 188.02 69.32 270.55 69.32 270.55 C 69.32 270.55 21.67 188.02 21.67 188.02 Z M 17.38 195.58 C 17.38 195.58 60.68 270.57 60.68 270.57 C 60.68 270.57 17.38 195.58 17.38 195.58 Z M 13.03 203.05 C 13.03 203.05 51.98 270.51 51.98 270.51 C 51.98 270.51 13.03 203.05 13.03 203.05 Z M 8.69 210.52 C 8.69 210.52 43.34 270.54 43.34 270.54 C 43.34 270.54 8.69 210.52 8.69 210.52 Z M 4.39 218.08 C 4.39 218.08 34.69 270.57 34.69 270.57 C 34.69 270.57 4.39 218.08 4.39 218.08 Z" fill="#000000" fill-opacity="0" stroke="url(#grad33)" stroke-width="1.9" stroke-linecap="round" stroke-linejoin="miter"/>
</g>
</g>
</g>
<g class="layer-b">
<g class="layer-a">
<g class="layer-path">
<path d="M -56.4 -52 C -56.4 -52 4.2 -52 4.2 -52 C 4.2 -52 -56.4 -52 -56.4 -52 Z M -60.8 -59.5 C -60.8 -59.5 8.5 -59.5 8.5 -59.5 C 8.5 -59.5 -60.8 -59.5 -60.8 -59.5 Z M -65.1 -67 C -65.1 -67 12.8 -67 12.8 -67 C 12.8 -67 -65.1 -67 -65.1 -67 Z M -69.4 -74.5 C -69.4 -74.5 17.2 -74.5 17.2 -74.5 C 17.2 -74.5 -69.4 -74.5 -69.4 -74.5 Z M -73.8 -82 C -73.8 -82 21.5 -82 21.5 -82 C 21.5 -82 -73.8 -82 -73.8 -82 Z" fill="#000000" fill-opacity="0" stroke="url(#grad34)" stroke-width="1.9" stroke-linecap="round" stroke-linejoin="miter"/>
</g>
<g class="layer-path">
<path d="M -78.1 -89.5 C -78.1 -89.5 25.8 -89.5 25.8 -89.5 C 25.8 -89.5 -78.1 -89.5 -78.1 -89.5 Z M -73.8 -97 C -73.8 -97 21.5 -97 21.5 -97 C 21.5 -97 -73.8 -97 -73.8 -97 Z M -69.4 -104.5 C -69.4 -104.5 17.2 -104.5 17.2 -104.5 C 17.2 -104.5 -69.4 -104.5 -69.4 -104.5 Z M -65.1 -112 C -65.1 -112 12.8 -112 12.8 -112 C 12.8 -112 -65.1 -112 -65.1 -112 Z M -60.8 -119.5 C -60.8 -119.5 8.5 -119.5 8.5 -119.5 C 8.5 -119.5 -60.8 -119.5 -60.8 -119.5 Z M -56.4 -127 C -56.4 -127 4.2 -127 4.2 -127 C 4.2 -127 -56.4 -127 -56.4 -127 Z" fill="#000000" fill-opacity="0" stroke="url(#grad35)" stroke-width="1.9" stroke-linecap="round" stroke-linejoin="miter"/>
</g>
</g>
<g class="layer-a">
<g class="layer-path">
<path d="M 34.73 -179.44 C 34.73 -179.44 4.43 -126.95 4.43 -126.95 C 4.43 -126.95 34.73 -179.44 34.73 -179.44 Z M 43.43 -179.5 C 43.43 -179.5 8.78 -119.48 8.78 -119.48 C 8.78 -119.48 43.43 -179.5 43.43 -179.5 Z M 52.08 -179.47 C 52.08 -179.47 13.13 -112.01 13.13 -112.01 C 13.13 -112.01 52.08 -179.47 52.08 -179.47 Z M 60.72 -179.44 C 60.72 -179.44 17.42 -104.45 17.42 -104.45 C 17.42 -104.45 60.72 -179.44 60.72 -179.44 Z M 69.42 -179.5 C 69.42 -179.5 21.77 -96.97 21.77 -96.97 C 21.77 -96.97 69.42 -179.5 69.42 -179.5 Z" fill="#000000" fill-opacity="0" stroke="url(#grad36)" stroke-width="1.9" stroke-linecap="round" stroke-linejoin="miter"/>
</g>
<g class="layer-path">
<path d="M 78.06 -179.48 C 78.06 -179.48 26.11 -89.5 26.11 -89.5 C 26.11 -89.5 78.06 -179.48 78.06 -179.48 Z M 82.41 -172 C 82.41 -172 34.76 -89.47 34.76 -89.47 C 34.76 -89.47 82.41 -172 82.41 -172 Z M 86.7 -164.44 C 86.7 -164.44 43.4 -89.45 43.4 -89.45 C 43.4 -89.45 86.7 -164.44 86.7 -164.44 Z M 91.05 -156.97 C 91.05 -156.97 52.1 -89.51 52.1 -89.51 C 52.1 -89.51 91.05 -156.97 91.05 -156.97 Z M 95.39 -149.5 C 95.39 -149.5 60.74 -89.48 60.74 -89.48 C 60.74 -89.48 95.39 -149.5 95.39 -149.5 Z M 99.69 -141.94 C 99.69 -141.94 69.39 -89.45 69.39 -89.45 C 69.39 -89.45 99.69 -141.94 99.69 -141.94 Z" fill="#000000" fill-opacity="0" stroke="url(#grad37)" stroke-width="1.9" stroke-linecap="round" stroke-linejoin="miter"/>
</g>
</g>
<g class="layer-a">
<g class="layer-path">
<path d="M 69.35 -89.42 C 69.35 -89.42 99.65 -36.93 99.65 -36.93 C 99.65 -36.93 69.35 -89.42 69.35 -89.42 Z M 60.65 -89.48 C 60.65 -89.48 95.3 -29.46 95.3 -29.46 C 95.3 -29.46 60.65 -89.48 60.65 -89.48 Z M 52.01 -89.45 C 52.01 -89.45 90.96 -21.99 90.96 -21.99 C 90.96 -21.99 52.01 -89.45 52.01 -89.45 Z M 43.36 -89.42 C 43.36 -89.42 86.66 -14.43 86.66 -14.43 C 86.66 -14.43 43.36 -89.42 43.36 -89.42 Z M 34.67 -89.48 C 34.67 -89.48 82.32 -6.95 82.32 -6.95 C 82.32 -6.95 34.67 -89.48 34.67 -89.48 Z" fill="#000000" fill-opacity="0" stroke="url(#grad38)" stroke-width="1.9" stroke-linecap="round" stroke-linejoin="miter"/>
</g>
<g class="layer-path">
<path d="M 26.02 -89.46 C 26.02 -89.46 77.97 0.52 77.97 0.52 C 77.97 0.52 26.02 -89.46 26.02 -89.46 Z M 21.67 -81.98 C 21.67 -81.98 69.32 0.55 69.32 0.55 C 69.32 0.55 21.67 -81.98 21.67 -81.98 Z M 17.38 -74.42 C 17.38 -74.42 60.68 0.57 60.68 0.57 C 60.68 0.57 17.38 -74.42 17.38 -74.42 Z M 13.03 -66.95 C 13.03 -66.95 51.98 0.51 51.98 0.51 C 51.98 0.51 13.03 -66.95 13.03 -66.95 Z M 8.69 -59.48 C 8.69 -59.48 43.34 0.54 43.34 0.54 C 43.34 0.54 8.69 -59.48 8.69 -59.48 Z M 4.39 -51.92 C 4.39 -51.92 34.69 0.57 34.69 0.57 C 34.69 0.57 4.39 -51.92 4.39 -51.92 Z" fill="#000000" fill-opacity="0" stroke="url(#grad39)" stroke-width="1.9" stroke-linecap="round" stroke-linejoin="miter"/>
</g>
</g>
</g>
<g class="layer-b">
<g class="layer-a">
<g class="layer-path">
<path d="M -134.5 353 C -134.5 353 -73.9 353 -73.9 353 C -73.9 353 -134.5 353 -134.5 353 Z M -138.9 345.5 C -138.9 345.5 -69.6 345.5 -69.6 345.5 C -69.6 345.5 -138.9 345.5 -138.9 345.5 Z M -143.2 338 C -143.2 338 -65.3 338 -65.3 338 C -65.3 338 -143.2 338 -143.2 338 Z M -147.5 330.5 C -147.5 330.5 -60.9 330.5 -60.9 330.5 C -60.9 330.5 -147.5 330.5 -147.5 330.5 Z M -151.9 323 C -151.9 323 -56.6 323 -56.6 323 C -56.6 323 -151.9 323 -151.9 323 Z" fill="#000000" fill-opacity="0" stroke="url(#grad40)" stroke-width="1.9" stroke-linecap="round" stroke-linejoin="miter"/>
</g>
<g class="layer-path">
<path d="M -156.2 315.5 C -156.2 315.5 -52.3 315.5 -52.3 315.5 C -52.3 315.5 -156.2 315.5 -156.2 315.5 Z M -151.9 308 C -151.9 308 -56.6 308 -56.6 308 C -56.6 308 -151.9 308 -151.9 308 Z M -147.5 300.5 C -147.5 300.5 -60.9 300.5 -60.9 300.5 C -60.9 300.5 -147.5 300.5 -147.5 300.5 Z M -143.2 293 C -143.2 293 -65.3 293 -65.3 293 C -65.3 293 -143.2 293 -143.2 293 Z M -138.9 285.5 C -138.9 285.5 -69.6 285.5 -69.6 285.5 C -69.6 285.5 -138.9 285.5 -138.9 285.5 Z M -134.5 278 C -134.5 278 -73.9 278 -73.9 278 C -73.9 278 -134.5 278 -134.5 278 Z" fill="#000000" fill-opacity="0" stroke="url(#grad41)" stroke-width="1.9" stroke-linecap="round" stroke-linejoin="miter"/>
</g>
</g>
<g class="layer-a">
<g class="layer-path">
<path d="M -43.37 225.56 C -43.37 225.56 -73.67 278.05 -73.67 278.05 C -73.67 278.05 -43.37 225.56 -43.37 225.56 Z M -34.67 225.5 C -34.67 225.5 -69.32 285.52 -69.32 285.52 C -69.32 285.52 -34.67 225.5 -34.67 225.5 Z M -26.02 225.53 C -26.02 225.53 -64.97 292.99 -64.97 292.99 C -64.97 292.99 -26.02 225.53 -26.02 225.53 Z M -17.38 225.56 C -17.38 225.56 -60.68 300.55 -60.68 300.55 C -60.68 300.55 -17.38 225.56 -17.38 225.56 Z M -8.68 225.5 C -8.68 225.5 -56.33 308.03 -56.33 308.03 C -56.33 308.03 -8.68 225.5 -8.68 225.5 Z" fill="#000000" fill-opacity="0" stroke="url(#grad42)" stroke-width="1.9" stroke-linecap="round" stroke-linejoin="miter"/>
</g>
<g class="layer-path">
<path d="M -0.04 225.52 C -0.04 225.52 -51.99 315.5 -51.99 315.5 C -51.99 315.5 -0.04 225.52 -0.04 225.52 Z M 4.31 233 C 4.31 233 -43.34 315.53 -43.34 315.53 C -43.34 315.53 4.31 233 4.31 233 Z M 8.6 240.56 C 8.6 240.56 -34.7 315.55 -34.7 315.55 C -34.7 315.55 8.6 240.56 8.6 240.56 Z M 12.95 248.03 C 12.95 248.03 -26 315.49 -26 315.49 C -26 315.49 12.95 248.03 12.95 248.03 Z M 17.29 255.5 C 17.29 255.5 -17.36 315.52 -17.36 315.52 C -17.36 315.52 17.29 255.5 17.29 255.5 Z M 21.59 263.06 C 21.59 263.06 -8.71 315.55 -8.71 315.55 C -8.71 315.55 21.59 263.06 21.59 263.06 Z" fill="#000000" fill-opacity="0" stroke="url(#grad43)" stroke-width="1.9" stroke-linecap="round" stroke-linejoin="miter"/>
</g>
</g>
<g class="layer-a">
<g class="layer-path">
<path d="M -8.75 315.58 C -8.75 315.58 21.55 368.07 21.55 368.07 C 21.55 368.07 -8.75 315.58 -8.75 315.58 Z M -17.45 315.52 C -17.45 315.52 17.2 375.54 17.2 375.54 C 17.2 375.54 -17.45 315.52 -17.45 315.52 Z M -26.09 315.55 C -26.09 315.55 12.86 383.01 12.86 383.01 C 12.86 383.01 -26.09 315.55 -26.09 315.55 Z M -34.74 315.58 C -34.74 315.58 8.56 390.57 8.56 390.57 C 8.56 390.57 -34.74 315.58 -34.74 315.58 Z M -43.43 315.52 C -43.43 315.52 4.22 398.05 4.22 398.05 C 4.22 398.05 -43.43 315.52 -43.43 315.52 Z" fill="#000000" fill-opacity="0" stroke="url(#grad44)" stroke-width="1.9" stroke-linecap="round" stroke-linejoin="miter"/>
</g>
<g class="layer-path">
<path d="M -52.08 315.54 C -52.08 315.54 -0.13 405.52 -0.13 405.52 C -0.13 405.52 -52.08 315.54 -52.08 315.54 Z M -56.43 323.02 C -56.43 323.02 -8.78 405.55 -8.78 405.55 C -8.78 405.55 -56.43 323.02 -56.43 323.02 Z M -60.72 330.58 C -60.72 330.58 -17.42 405.57 -17.42 405.57 C -17.42 405.57 -60.72 330.58 -60.72 330.58 Z M -65.07 338.05 C -65.07 338.05 -26.12 405.51 -26.12 405.51 C -26.12 405.51 -65.07 338.05 -65.07 338.05 Z M -69.41 345.52 C -69.41 345.52 -34.76 405.54 -34.76 405.54 C -34.76 405.54 -69.41 345.52 -69.41 345.52 Z M -73.71 353.08 C -73.71 353.08 -43.41 405.57 -43.41 405.57 C -43.41 405.57 -73.71 353.08 -73.71 353.08 Z" fill="#000000" fill-opacity="0" stroke="url(#grad45)" stroke-width="1.9" stroke-linecap="round" stroke-linejoin="miter"/>
</g>
</g>
</g>
<g class="layer-b">
<g class="layer-a">
<g class="layer-path">
<path d="M -134.5 83 C -134.5 83 -73.9 83 -73.9 83 C -73.9 83 -134.5 83 -134.5 83 Z M -138.9 75.5 C -138.9 75.5 -69.6 75.5 -69.6 75.5 C -69.6 75.5 -138.9 75.5 -138.9 75.5 Z M -143.2 68 C -143.2 68 -65.3 68 -65.3 68 C -65.3 68 -143.2 68 -143.2 68 Z M -147.5 60.5 C -147.5 60.5 -60.9 60.5 -60.9 60.5 C -60.9 60.5 -147.5 60.5 -147.5 60.5 Z M -151.9 53 C -151.9 53 -56.6 53 -56.6 53 C -56.6 53 -151.9 53 -151.9 53 Z" fill="#000000" fill-opacity="0" stroke="url(#grad46)" stroke-width="1.9" stroke-linecap="round" stroke-linejoin="miter"/>
</g>
<g class="layer-path">
<path d="M -156.2 45.5 C -156.2 45.5 -52.3 45.5 -52.3 45.5 C -52.3 45.5 -156.2 45.5 -156.2 45.5 Z M -151.9 38 C -151.9 38 -56.6 38 -56.6 38 C -56.6 38 -151.9 38 -151.9 38 Z M -147.5 30.5 C -147.5 30.5 -60.9 30.5 -60.9 30.5 C -60.9 30.5 -147.5 30.5 -147.5 30.5 Z M -143.2 23 C -143.2 23 -65.3 23 -65.3 23 C -65.3 23 -143.2 23 -143.2 23 Z M -138.9 15.5 C -138.9 15.5 -69.6 15.5 -69.6 15.5 C -69.6 15.5 -138.9 15.5 -138.9 15.5 Z M -134.5 8 C -134.5 8 -73.9 8 -73.9 8 C -73.9 8 -134.5 8 -134.5 8 Z" fill="#000000" fill-opacity="0" stroke="url(#grad47)" stroke-width="1.9" stroke-linecap="round" stroke-linejoin="miter"/>
</g>
</g>
<g class="layer-a">
<g class="layer-path">
<path d="M -43.37 -44.44 C -43.37 -44.44 -73.67 8.05 -73.67 8.05 C -73.67 8.05 -43.37 -44.44 -43.37 -44.44 Z M -34.67 -44.5 C -34.67 -44.5 -69.32 15.52 -69.32 15.52 C -69.32 15.52 -34.67 -44.5 -34.67 -44.5 Z M -26.02 -44.47 C -26.02 -44.47 -64.97 22.99 -64.97 22.99 C -64.97 22.99 -26.02 -44.47 -26.02 -44.47 Z M -17.38 -44.44 C -17.38 -44.44 -60.68 30.55 -60.68 30.55 C -60.68 30.55 -17.38 -44.44 -17.38 -44.44 Z M -8.68 -44.5 C -8.68 -44.5 -56.33 38.03 -56.33 38.03 C -56.33 38.03 -8.68 -44.5 -8.68 -44.5 Z" fill="#000000" fill-opacity="0" stroke="url(#grad48)" stroke-width="1.9" stroke-linecap="round" stroke-linejoin="miter"/>
</g>
<g class="layer-path">
<path d="M -0.04 -44.48 C -0.04 -44.48 -51.99 45.5 -51.99 45.5 C -51.99 45.5 -0.04 -44.48 -0.04 -44.48 Z M 4.31 -37 C 4.31 -37 -43.34 45.53 -43.34 45.53 C -43.34 45.53 4.31 -37 4.31 -37 Z M 8.6 -29.44 C 8.6 -29.44 -34.7 45.55 -34.7 45.55 C -34.7 45.55 8.6 -29.44 8.6 -29.44 Z M 12.95 -21.97 C 12.95 -21.97 -26 45.49 -26 45.49 C -26 45.49 12.95 -21.97 12.95 -21.97 Z M 17.29 -14.5 C 17.29 -14.5 -17.36 45.52 -17.36 45.52 C -17.36 45.52 17.29 -14.5 17.29 -14.5 Z M 21.59 -6.94 C 21.59 -6.94 -8.71 45.55 -8.71 45.55 C -8.71 45.55 21.59 -6.94 21.59 -6.94 Z" fill="#000000" fill-opacity="0" stroke="url(#grad49)" stroke-width="1.9" stroke-linecap="round" stroke-linejoin="miter"/>
</g>
</g>
<g class="layer-a">
<g class="layer-path">
<path d="M -8.75 45.58 C -8.75 45.58 21.55 98.07 21.55 98.07 C 21.55 98.07 -8.75 45.58 -8.75 45.58 Z M -17.45 45.52 C -17.45 45.52 17.2 105.54 17.2 105.54 C 17.2 105.54 -17.45 45.52 -17.45 45.52 Z M -26.09 45.55 C -26.09 45.55 12.86 113.01 12.86 113.01 C 12.86 113.01 -26.09 45.55 -26.09 45.55 Z M -34.74 45.58 C -34.74 45.58 8.56 120.57 8.56 120.57 C 8.56 120.57 -34.74 45.58 -34.74 45.58 Z M -43.43 45.52 C -43.43 45.52 4.22 128.05 4.22 128.05 C 4.22 128.05 -43.43 45.52 -43.43 45.52 Z" fill="#000000" fill-opacity="0" stroke="url(#grad50)" stroke-width="1.9" stroke-linecap="round" stroke-linejoin="miter"/>
</g>
<g class="layer-path">
<path d="M -52.08 45.54 C -52.08 45.54 -0.13 135.52 -0.13 135.52 C -0.13 135.52 -52.08 45.54 -52.08 45.54 Z M -56.43 53.02 C -56.43 53.02 -8.78 135.55 -8.78 135.55 C -8.78 135.55 -56.43 53.02 -56.43 53.02 Z M -60.72 60.58 C -60.72 60.58 -17.42 135.57 -17.42 135.57 C -17.42 135.57 -60.72 60.58 -60.72 60.58 Z M -65.07 68.05 C -65.07 68.05 -26.12 135.51 -26.12 135.51 C -26.12 135.51 -65.07 68.05 -65.07 68.05 Z M -69.41 75.52 C -69.41 75.52 -34.76 135.54 -34.76 135.54 C -34.76 135.54 -69.41 75.52 -69.41 75.52 Z M -73.71 83.08 C -73.71 83.08 -43.41 135.57 -43.41 135.57 C -43.41 135.57 -73.71 83.08 -73.71 83.08 Z" fill="#000000" fill-opacity="0" stroke="url(#grad51)" stroke-width="1.9" stroke-linecap="round" stroke-linejoin="miter"/>
</g>
</g>
</g>
<g class="layer-c">
<g class="layer-group">
<g class="layer-path" opacity="0.5">
<path d="M 80.3 4 C 80.3 4 19 4 19 4 C 19 4 -3.3 45 -3.3 45 C -3.3 45 105 46.3 105 46.3 C 105 46.3 80.3 4 80.3 4 Z" fill="url(#grad52)" stroke-linejoin="miter"/>
</g>
<g class="layer-path" opacity="0.5">
<path d="M 158.36 -48.29 C 158.36 -48.29 110.97 -48.4 110.97 -48.4 C 110.97 -48.4 80.52 4.34 80.52 4.34 C 80.52 4.34 104.36 45.24 104.36 45.24 C 104.36 45.24 158.36 -48.29 158.36 -48.29 Z" fill="url(#grad53)" stroke-linejoin="miter"/>
</g>
</g>
<g class="layer-group">
<g class="layer-path" opacity="0.5">
<path d="M 110.75 138.82 C 110.75 138.82 80.1 85.74 80.1 85.74 C 80.1 85.74 104.46 45.92 104.46 45.92 C 104.46 45.92 159.73 139.06 159.73 139.06 C 159.73 139.06 110.75 138.82 110.75 138.82 Z" fill="url(#grad54)" stroke-linejoin="miter"/>
</g>
<g class="layer-path" opacity="0.5">
<path d="M -4 45.5 C -4 45.5 19.6 86.6 19.6 86.6 C 19.6 86.6 80.5 86.6 80.5 86.6 C 80.5 86.6 104 45.5 104 45.5 C 104 45.5 -4 45.5 -4 45.5 Z" fill="url(#grad55)" stroke-linejoin="miter"/>
</g>
</g>
</g>
<g class="layer-c">
<g class="layer-group">
<g class="layer-path" opacity="0.5">
<path d="M 236.3 4 C 236.3 4 175 4 175 4 C 175 4 152.7 45 152.7 45 C 152.7 45 261 46.3 261 46.3 C 261 46.3 236.3 4 236.3 4 Z" fill="url(#grad56)" stroke-linejoin="miter"/>
</g>
<g class="layer-path" opacity="0.5">
<path d="M 314.36 -48.29 C 314.36 -48.29 266.97 -48.4 266.97 -48.4 C 266.97 -48.4 236.52 4.34 236.52 4.34 C 236.52 4.34 260.36 45.24 260.36 45.24 C 260.36 45.24 314.36 -48.29 314.36 -48.29 Z" fill="url(#grad57)" stroke-linejoin="miter"/>
</g>
</g>
<g class="layer-group">
<g class="layer-path" opacity="0.5">
<path d="M 266.75 138.82 C 266.75 138.82 236.1 85.74 236.1 85.74 C 236.1 85.74 260.46 45.92 260.46 45.92 C 260.46 45.92 315.73 139.06 315.73 139.06 C 315.73 139.06 266.75 138.82 266.75 138.82 Z" fill="url(#grad58)" stroke-linejoin="miter"/>
</g>
<g class="layer-path" opacity="0.5">
<path d="M 152 45.5 C 152 45.5 175.6 86.6 175.6 86.6 C 175.6 86.6 236.5 86.6 236.5 86.6 C 236.5 86.6 260 45.5 260 45.5 C 260 45.5 152 45.5 152 45.5 Z" fill="url(#grad59)" stroke-linejoin="miter"/>
</g>
</g>
</g>
<g class="layer-c">
<g class="layer-group">
<g class="layer-path" opacity="0.5">
<path d="M 158.4 139 C 158.4 139 97.1 139 97.1 139 C 97.1 139 74.8 180 74.8 180 C 74.8 180 183.1 181.3 183.1 181.3 C 183.1 181.3 158.4 139 158.4 139 Z" fill="url(#grad60)" stroke-linejoin="miter"/>
</g>
<g class="layer-path" opacity="0.5">
<path d="M 236.46 86.71 C 236.46 86.71 189.07 86.6 189.07 86.6 C 189.07 86.6 158.62 139.34 158.62 139.34 C 158.62 139.34 182.46 180.24 182.46 180.24 C 182.46 180.24 236.46 86.71 236.46 86.71 Z" fill="url(#grad61)" stroke-linejoin="miter"/>
</g>
</g>
<g class="layer-group">
<g class="layer-path" opacity="0.5">
<path d="M 188.85 273.82 C 188.85 273.82 158.2 220.74 158.2 220.74 C 158.2 220.74 182.56 180.92 182.56 180.92 C 182.56 180.92 237.83 274.06 237.83 274.06 C 237.83 274.06 188.85 273.82 188.85 273.82 Z" fill="url(#grad62)" stroke-linejoin="miter"/>
</g>
<g class="layer-path" opacity="0.5">
<path d="M 74.1 180.5 C 74.1 180.5 97.7 221.6 97.7 221.6 C 97.7 221.6 158.6 221.6 158.6 221.6 C 158.6 221.6 182.1 180.5 182.1 180.5 C 182.1 180.5 74.1 180.5 74.1 180.5 Z" fill="url(#grad63)" stroke-linejoin="miter"/>
</g>
</g>
</g>
<g class="layer-c">
<g class="layer-group">
<g class="layer-path" opacity="0.5">
<path d="M 80.3 274 C 80.3 274 19 274 19 274 C 19 274 -3.3 315 -3.3 315 C -3.3 315 105 316.3 105 316.3 C 105 316.3 80.3 274 80.3 274 Z" fill="url(#grad64)" stroke-linejoin="miter"/>
</g>
<g class="layer-path" opacity="0.5">
<path d="M 158.36 221.71 C 158.36 221.71 110.97 221.6 110.97 221.6 C 110.97 221.6 80.52 274.34 80.52 274.34 C 80.52 274.34 104.36 315.24 104.36 315.24 C 104.36 315.24 158.36 221.71 158.36 221.71 Z" fill="url(#grad65)" stroke-linejoin="miter"/>
</g>
</g>
<g class="layer-group">
<g class="layer-path" opacity="0.5">
<path d="M 110.75 408.82 C 110.75 408.82 80.1 355.74 80.1 355.74 C 80.1 355.74 104.46 315.92 104.46 315.92 C 104.46 315.92 159.73 409.06 159.73 409.06 C 159.73 409.06 110.75 408.82 110.75 408.82 Z" fill="url(#grad66)" stroke-linejoin="miter"/>
</g>
<g class="layer-path" opacity="0.5">
<path d="M -4 315.5 C -4 315.5 19.6 356.6 19.6 356.6 C 19.6 356.6 80.5 356.6 80.5 356.6 C 80.5 356.6 104 315.5 104 315.5 C 104 315.5 -4 315.5 -4 315.5 Z" fill="url(#grad67)" stroke-linejoin="miter"/>
</g>
</g>
</g>
<g class="layer-c">
<g class="layer-group">
<g class="layer-path" opacity="0.5">
<path d="M 2.2 139 C 2.2 139 -59.1 139 -59.1 139 C -59.1 139 -81.4 180 -81.4 180 C -81.4 180 26.9 181.3 26.9 181.3 C 26.9 181.3 2.2 139 2.2 139 Z" fill="url(#grad68)" stroke-linejoin="miter"/>
</g>
<g class="layer-path" opacity="0.5">
<path d="M 80.26 86.71 C 80.26 86.71 32.87 86.6 32.87 86.6 C 32.87 86.6 2.42 139.34 2.42 139.34 C 2.42 139.34 26.26 180.24 26.26 180.24 C 26.26 180.24 80.26 86.71 80.26 86.71 Z" fill="url(#grad69)" stroke-linejoin="miter"/>
</g>
</g>
<g class="layer-group">
<g class="layer-path" opacity="0.5">
<path d="M 32.65 273.82 C 32.65 273.82 2 220.74 2 220.74 C 2 220.74 26.36 180.92 26.36 180.92 C 26.36 180.92 81.63 274.06 81.63 274.06 C 81.63 274.06 32.65 273.82 32.65 273.82 Z" fill="url(#grad70)" stroke-linejoin="miter"/>
</g>
<g class="layer-path" opacity="0.5">
<path d="M -82.1 180.5 C -82.1 180.5 -58.5 221.6 -58.5 221.6 C -58.5 221.6 2.4 221.6 2.4 221.6 C 2.4 221.6 25.9 180.5 25.9 180.5 C 25.9 180.5 -82.1 180.5 -82.1 180.5 Z" fill="url(#grad71)" stroke-linejoin="miter"/>
</g>
</g>
</g>
<g class="layer-c">
<g class="layer-group">
<g class="layer-path" opacity="0.5">
<path d="M 2.2 -131 C 2.2 -131 -59.1 -131 -59.1 -131 C -59.1 -131 -81.4 -90 -81.4 -90 C -81.4 -90 26.9 -88.7 26.9 -88.7 C 26.9 -88.7 2.2 -131 2.2 -131 Z" fill="url(#grad72)" stroke-linejoin="miter"/>
</g>
<g class="layer-path" opacity="0.5">
<path d="M 80.26 -183.29 C 80.26 -183.29 32.87 -183.4 32.87 -183.4 C 32.87 -183.4 2.42 -130.66 2.42 -130.66 C 2.42 -130.66 26.26 -89.76 26.26 -89.76 C 26.26 -89.76 80.26 -183.29 80.26 -183.29 Z" fill="url(#grad73)" stroke-linejoin="miter"/>
</g>
</g>
<g class="layer-group">
<g class="layer-path" opacity="0.5">
<path d="M 32.65 3.82 C 32.65 3.82 2 -49.26 2 -49.26 C 2 -49.26 26.36 -89.08 26.36 -89.08 C 26.36 -89.08 81.63 4.06 81.63 4.06 C 81.63 4.06 32.65 3.82 32.65 3.82 Z" fill="url(#grad74)" stroke-linejoin="miter"/>
</g>
<g class="layer-path" opacity="0.5">
<path d="M -82.1 -89.5 C -82.1 -89.5 -58.5 -48.4 -58.5 -48.4 C -58.5 -48.4 2.4 -48.4 2.4 -48.4 C 2.4 -48.4 25.9 -89.5 25.9 -89.5 C 25.9 -89.5 -82.1 -89.5 -82.1 -89.5 Z" fill="url(#grad75)" stroke-linejoin="miter"/>
</g>
</g>
</g>
<g class="layer-c">
<g class="layer-group">
<g class="layer-path" opacity="0.5">
<path d="M -75.9 274 C -75.9 274 -137.2 274 -137.2 274 C -137.2 274 -159.5 315 -159.5 315 C -159.5 315 -51.2 316.3 -51.2 316.3 C -51.2 316.3 -75.9 274 -75.9 274 Z" fill="url(#grad76)" stroke-linejoin="miter"/>
</g>
<g class="layer-path" opacity="0.5">
<path d="M 2.16 221.71 C 2.16 221.71 -45.23 221.6 -45.23 221.6 C -45.23 221.6 -75.68 274.34 -75.68 274.34 C -75.68 274.34 -51.84 315.24 -51.84 315.24 C -51.84 315.24 2.16 221.71 2.16 221.71 Z" fill="url(#grad77)" stroke-linejoin="miter"/>
</g>
</g>
<g class="layer-group">
<g class="layer-path" opacity="0.5">
<path d="M -45.45 408.82 C -45.45 408.82 -76.1 355.74 -76.1 355.74 C -76.1 355.74 -51.74 315.92 -51.74 315.92 C -51.74 315.92 3.53 409.06 3.53 409.06 C 3.53 409.06 -45.45 408.82 -45.45 408.82 Z" fill="url(#grad78)" stroke-linejoin="miter"/>
</g>
<g class="layer-path" opacity="0.5">
<path d="M -160.2 315.5 C -160.2 315.5 -136.6 356.6 -136.6 356.6 C -136.6 356.6 -75.7 356.6 -75.7 356.6 C -75.7 356.6 -52.2 315.5 -52.2 315.5 C -52.2 315.5 -160.2 315.5 -160.2 315.5 Z" fill="url(#grad79)" stroke-linejoin="miter"/>
</g>
</g>
</g>
<g class="layer-c">
<g class="layer-group">
<g class="layer-path" opacity="0.5">
<path d="M -75.9 4 C -75.9 4 -137.2 4 -137.2 4 C -137.2 4 -159.5 45 -159.5 45 C -159.5 45 -51.2 46.3 -51.2 46.3 C -51.2 46.3 -75.9 4 -75.9 4 Z" fill="url(#grad80)" stroke-linejoin="miter"/>
</g>
<g class="layer-path" opacity="0.5">
<path d="M 2.16 -48.29 C 2.16 -48.29 -45.23 -48.4 -45.23 -48.4 C -45.23 -48.4 -75.68 4.34 -75.68 4.34 C -75.68 4.34 -51.84 45.24 -51.84 45.24 C -51.84 45.24 2.16 -48.29 2.16 -48.29 Z" fill="url(#grad81)" stroke-linejoin="miter"/>
</g>
</g>
<g class="layer-group">
<g class="layer-path" opacity="0.5">
<path d="M -45.45 138.82 C -45.45 138.82 -76.1 85.74 -76.1 85.74 C -76.1 85.74 -51.74 45.92 -51.74 45.92 C -51.74 45.92 3.53 139.06 3.53 139.06 C 3.53 139.06 -45.45 138.82 -45.45 138.82 Z" fill="url(#grad82)" stroke-linejoin="miter"/>
</g>
<g class="layer-path" opacity="0.5">
<path d="M -160.2 45.5 C -160.2 45.5 -136.6 86.6 -136.6 86.6 C -136.6 86.6 -75.7 86.6 -75.7 86.6 C -75.7 86.6 -52.2 45.5 -52.2 45.5 C -52.2 45.5 -160.2 45.5 -160.2 45.5 Z" fill="url(#grad83)" stroke-linejoin="miter"/>
</g>
</g>
</g>
</g>
  </pattern>
  <linearGradient id="grad4" x1="0" y1="0" x2="1" y2="0">
    <stop offset="0" stop-color="#FFFF00"/>
    <stop offset="0.5" stop-color="#FF00B6"/>
    <stop offset="1" stop-color="#00FFFF"/>
  </linearGradient>
  <linearGradient id="grad5" x1="0" y1="0" x2="1" y2="0">
    <stop offset="0" stop-color="#FFFF00"/>
    <stop offset="0.5" stop-color="#FF00B6"/>
    <stop offset="1" stop-color="#00FFFF"/>
  </linearGradient>
  <linearGradient id="grad6" x1="0" y1="0" x2="1" y2="0">
    <stop offset="0" stop-color="#FFFF00"/>
    <stop offset="0.5" stop-color="#FF00B6"/>
    <stop offset="1" stop-color="#00FFFF"/>
  </linearGradient>
  <linearGradient id="grad7" x1="0" y1="0" x2="1" y2="0">
    <stop offset="0" stop-color="#FFFF00"/>
    <stop offset="0.5" stop-color="#FF00B6"/>
    <stop offset="1" stop-color="#00FFFF"/>
  </linearGradient>
  <linearGradient id="grad8" x1="0" y1="0" x2="1" y2="0">
    <stop offset="0" stop-color="#FFFF00"/>
    <stop offset="0.5" stop-color="#FF00B6"/>
    <stop offset="1" stop-color="#00FFFF"/>
  </linearGradient>
  <linearGradient id="grad9" x1="0" y1="0" x2="1" y2="0">
    <stop offset="0" stop-color="#FFFF00"/>
    <stop offset="0.5" stop-color="#FF00B6"/>
    <stop offset="1" stop-color="#00FFFF"/>
  </linearGradient>
  <linearGradient id="grad10" x1="0" y1="0" x2="1" y2="0">
    <stop offset="0" stop-color="#FFFF00"/>
    <stop offset="0.5" stop-color="#FF00B6"/>
    <stop offset="1" stop-color="#00FFFF"/>
  </linearGradient>
  <linearGradient id="grad11" x1="0" y1="0" x2="1" y2="0">
    <stop offset="0" stop-color="#FFFF00"/>
    <stop offset="0.5" stop-color="#FF00B6"/>
    <stop offset="1" stop-color="#00FFFF"/>
  </linearGradient>
  <linearGradient id="grad12" x1="0" y1="0" x2="1" y2="0">
    <stop offset="0" stop-color="#FFFF00"/>
    <stop offset="0.5" stop-color="#FF00B6"/>
    <stop offset="1" stop-color="#00FFFF"/>
  </linearGradient>
  <linearGradient id="grad13" x1="0" y1="0" x2="1" y2="0">
    <stop offset="0" stop-color="#FFFF00"/>
    <stop offset="0.5" stop-color="#FF00B6"/>
    <stop offset="1" stop-color="#00FFFF"/>
  </linearGradient>
  <linearGradient id="grad14" x1="0" y1="0" x2="1" y2="0">
    <stop offset="0" stop-color="#FFFF00"/>
    <stop offset="0.5" stop-color="#FF00B6"/>
    <stop offset="1" stop-color="#00FFFF"/>
  </linearGradient>
  <linearGradient id="grad15" x1="0" y1="0" x2="1" y2="0">
    <stop offset="0" stop-color="#FFFF00"/>
    <stop offset="0.5" stop-color="#FF00B6"/>
    <stop offset="1" stop-color="#00FFFF"/>
  </linearGradient>
  <linearGradient id="grad16" x1="0" y1="0" x2="1" y2="0">
    <stop offset="0" stop-color="#FFFF00"/>
    <stop offset="0.5" stop-color="#FF00B6"/>
    <stop offset="1" stop-color="#00FFFF"/>
  </linearGradient>
  <linearGradient id="grad17" x1="0" y1="0" x2="1" y2="0">
    <stop offset="0" stop-color="#FFFF00"/>
    <stop offset="0.5" stop-color="#FF00B6"/>
    <stop offset="1" stop-color="#00FFFF"/>
  </linearGradient>
  <linearGradient id="grad18" x1="0" y1="0" x2="1" y2="0">
    <stop offset="0" stop-color="#FFFF00"/>
    <stop offset="0.5" stop-color="#FF00B6"/>
    <stop offset="1" stop-color="#00FFFF"/>
  </linearGradient>
  <linearGradient id="grad19" x1="0" y1="0" x2="1" y2="0">
    <stop offset="0" stop-color="#FFFF00"/>
    <stop offset="0.5" stop-color="#FF00B6"/>
    <stop offset="1" stop-color="#00FFFF"/>
  </linearGradient>
  <linearGradient id="grad20" x1="0" y1="0" x2="1" y2="0">
    <stop offset="0" stop-color="#FFFF00"/>
    <stop offset="0.5" stop-color="#FF00B6"/>
    <stop offset="1" stop-color="#00FFFF"/>
  </linearGradient>
  <linearGradient id="grad21" x1="0" y1="0" x2="1" y2="0">
    <stop offset="0" stop-color="#FFFF00"/>
    <stop offset="0.5" stop-color="#FF00B6"/>
    <stop offset="1" stop-color="#00FFFF"/>
  </linearGradient>
  <linearGradient id="grad22" x1="0" y1="0" x2="1" y2="0">
    <stop offset="0" stop-color="#FFFF00"/>
    <stop offset="0.5" stop-color="#FF00B6"/>
    <stop offset="1" stop-color="#00FFFF"/>
  </linearGradient>
  <linearGradient id="grad23" x1="0" y1="0" x2="1" y2="0">
    <stop offset="0" stop-color="#FFFF00"/>
    <stop offset="0.5" stop-color="#FF00B6"/>
    <stop offset="1" stop-color="#00FFFF"/>
  </linearGradient>
  <linearGradient id="grad24" x1="0" y1="0" x2="1" y2="0">
    <stop offset="0" stop-color="#FFFF00"/>
    <stop offset="0.5" stop-color="#FF00B6"/>
    <stop offset="1" stop-color="#00FFFF"/>
  </linearGradient>
  <linearGradient id="grad25" x1="0" y1="0" x2="1" y2="0">
    <stop offset="0" stop-color="#FFFF00"/>
    <stop offset="0.5" stop-color="#FF00B6"/>
    <stop offset="1" stop-color="#00FFFF"/>
  </linearGradient>
  <linearGradient id="grad26" x1="0" y1="0" x2="1" y2="0">
    <stop offset="0" stop-color="#FFFF00"/>
    <stop offset="0.5" stop-color="#FF00B6"/>
    <stop offset="1" stop-color="#00FFFF"/>
  </linearGradient>
  <linearGradient id="grad27" x1="0" y1="0" x2="1" y2="0">
    <stop offset="0" stop-color="#FFFF00"/>
    <stop offset="0.5" stop-color="#FF00B6"/>
    <stop offset="1" stop-color="#00FFFF"/>
  </linearGradient>
  <linearGradient id="grad28" x1="0" y1="0" x2="1" y2="0">
    <stop offset="0" stop-color="#FFFF00"/>
    <stop offset="0.5" stop-color="#FF00B6"/>
    <stop offset="1" stop-color="#00FFFF"/>
  </linearGradient>
  <linearGradient id="grad29" x1="0" y1="0" x2="1" y2="0">
    <stop offset="0" stop-color="#FFFF00"/>
    <stop offset="0.5" stop-color="#FF00B6"/>
    <stop offset="1" stop-color="#00FFFF"/>
  </linearGradient>
  <linearGradient id="grad30" x1="0" y1="0" x2="1" y2="0">
    <stop offset="0" stop-color="#FFFF00"/>
    <stop offset="0.5" stop-color="#FF00B6"/>
    <stop offset="1" stop-color="#00FFFF"/>
  </linearGradient>
  <linearGradient id="grad31" x1="0" y1="0" x2="1" y2="0">
    <stop offset="0" stop-color="#FFFF00"/>
    <stop offset="0.5" stop-color="#FF00B6"/>
    <stop offset="1" stop-color="#00FFFF"/>
  </linearGradient>
  <linearGradient id="grad32" x1="0" y1="0" x2="1" y2="0">
    <stop offset="0" stop-color="#FFFF00"/>
    <stop offset="0.5" stop-color="#FF00B6"/>
    <stop offset="1" stop-color="#00FFFF"/>
  </linearGradient>
  <linearGradient id="grad33" x1="0" y1="0" x2="1" y2="0">
    <stop offset="0" stop-color="#FFFF00"/>
    <stop offset="0.5" stop-color="#FF00B6"/>
    <stop offset="1" stop-color="#00FFFF"/>
  </linearGradient>
  <linearGradient id="grad34" x1="0" y1="0" x2="1" y2="0">
    <stop offset="0" stop-color="#FFFF00"/>
    <stop offset="0.5" stop-color="#FF00B6"/>
    <stop offset="1" stop-color="#00FFFF"/>
  </linearGradient>
  <linearGradient id="grad35" x1="0" y1="0" x2="1" y2="0">
    <stop offset="0" stop-color="#FFFF00"/>
    <stop offset="0.5" stop-color="#FF00B6"/>
    <stop offset="1" stop-color="#00FFFF"/>
  </linearGradient>
  <linearGradient id="grad36" x1="0" y1="0" x2="1" y2="0">
    <stop offset="0" stop-color="#FFFF00"/>
    <stop offset="0.5" stop-color="#FF00B6"/>
    <stop offset="1" stop-color="#00FFFF"/>
  </linearGradient>
  <linearGradient id="grad37" x1="0" y1="0" x2="1" y2="0">
    <stop offset="0" stop-color="#FFFF00"/>
    <stop offset="0.5" stop-color="#FF00B6"/>
    <stop offset="1" stop-color="#00FFFF"/>
  </linearGradient>
  <linearGradient id="grad38" x1="0" y1="0" x2="1" y2="0">
    <stop offset="0" stop-color="#FFFF00"/>
    <stop offset="0.5" stop-color="#FF00B6"/>
    <stop offset="1" stop-color="#00FFFF"/>
  </linearGradient>
  <linearGradient id="grad39" x1="0" y1="0" x2="1" y2="0">
    <stop offset="0" stop-color="#FFFF00"/>
    <stop offset="0.5" stop-color="#FF00B6"/>
    <stop offset="1" stop-color="#00FFFF"/>
  </linearGradient>
  <linearGradient id="grad40" x1="0" y1="0" x2="1" y2="0">
    <stop offset="0" stop-color="#FFFF00"/>
    <stop offset="0.5" stop-color="#FF00B6"/>
    <stop offset="1" stop-color="#00FFFF"/>
  </linearGradient>
  <linearGradient id="grad41" x1="0" y1="0" x2="1" y2="0">
    <stop offset="0" stop-color="#FFFF00"/>
    <stop offset="0.5" stop-color="#FF00B6"/>
    <stop offset="1" stop-color="#00FFFF"/>
  </linearGradient>
  <linearGradient id="grad42" x1="0" y1="0" x2="1" y2="0">
    <stop offset="0" stop-color="#FFFF00"/>
    <stop offset="0.5" stop-color="#FF00B6"/>
    <stop offset="1" stop-color="#00FFFF"/>
  </linearGradient>
  <linearGradient id="grad43" x1="0" y1="0" x2="1" y2="0">
    <stop offset="0" stop-color="#FFFF00"/>
    <stop offset="0.5" stop-color="#FF00B6"/>
    <stop offset="1" stop-color="#00FFFF"/>
  </linearGradient>
  <linearGradient id="grad44" x1="0" y1="0" x2="1" y2="0">
    <stop offset="0" stop-color="#FFFF00"/>
    <stop offset="0.5" stop-color="#FF00B6"/>
    <stop offset="1" stop-color="#00FFFF"/>
  </linearGradient>
  <linearGradient id="grad45" x1="0" y1="0" x2="1" y2="0">
    <stop offset="0" stop-color="#FFFF00"/>
    <stop offset="0.5" stop-color="#FF00B6"/>
    <stop offset="1" stop-color="#00FFFF"/>
  </linearGradient>
  <linearGradient id="grad46" x1="0" y1="0" x2="1" y2="0">
    <stop offset="0" stop-color="#FFFF00"/>
    <stop offset="0.5" stop-color="#FF00B6"/>
    <stop offset="1" stop-color="#00FFFF"/>
  </linearGradient>
  <linearGradient id="grad47" x1="0" y1="0" x2="1" y2="0">
    <stop offset="0" stop-color="#FFFF00"/>
    <stop offset="0.5" stop-color="#FF00B6"/>
    <stop offset="1" stop-color="#00FFFF"/>
  </linearGradient>
  <linearGradient id="grad48" x1="0" y1="0" x2="1" y2="0">
    <stop offset="0" stop-color="#FFFF00"/>
    <stop offset="0.5" stop-color="#FF00B6"/>
    <stop offset="1" stop-color="#00FFFF"/>
  </linearGradient>
  <linearGradient id="grad49" x1="0" y1="0" x2="1" y2="0">
    <stop offset="0" stop-color="#FFFF00"/>
    <stop offset="0.5" stop-color="#FF00B6"/>
    <stop offset="1" stop-color="#00FFFF"/>
  </linearGradient>
  <linearGradient id="grad50" x1="0" y1="0" x2="1" y2="0">
    <stop offset="0" stop-color="#FFFF00"/>
    <stop offset="0.5" stop-color="#FF00B6"/>
    <stop offset="1" stop-color="#00FFFF"/>
  </linearGradient>
  <linearGradient id="grad51" x1="0" y1="0" x2="1" y2="0">
    <stop offset="0" stop-color="#FFFF00"/>
    <stop offset="0.5" stop-color="#FF00B6"/>
    <stop offset="1" stop-color="#00FFFF"/>
  </linearGradient>
  <linearGradient id="grad52" x1="0" y1="0" x2="1" y2="0">
    <stop offset="0" stop-color="#611440" stop-opacity="0"/>
    <stop offset="1" stop-color="#611440"/>
  </linearGradient>
  <linearGradient id="grad53" x1="0" y1="0" x2="1" y2="0">
    <stop offset="0" stop-color="#611440" stop-opacity="0"/>
    <stop offset="1" stop-color="#611440"/>
  </linearGradient>
  <linearGradient id="grad54" x1="0" y1="0" x2="1" y2="0">
    <stop offset="0" stop-color="#611440" stop-opacity="0"/>
    <stop offset="1" stop-color="#611440"/>
  </linearGradient>
  <linearGradient id="grad55" x1="0" y1="0" x2="1" y2="0">
    <stop offset="0" stop-color="#611440" stop-opacity="0"/>
    <stop offset="1" stop-color="#611440"/>
  </linearGradient>
  <linearGradient id="grad56" x1="0" y1="0" x2="1" y2="0">
    <stop offset="0" stop-color="#611440" stop-opacity="0"/>
    <stop offset="1" stop-color="#611440"/>
  </linearGradient>
  <linearGradient id="grad57" x1="0" y1="0" x2="1" y2="0">
    <stop offset="0" stop-color="#611440" stop-opacity="0"/>
    <stop offset="1" stop-color="#611440"/>
  </linearGradient>
  <linearGradient id="grad58" x1="0" y1="0" x2="1" y2="0">
    <stop offset="0" stop-color="#611440" stop-opacity="0"/>
    <stop offset="1" stop-color="#611440"/>
  </linearGradient>
  <linearGradient id="grad59" x1="0" y1="0" x2="1" y2="0">
    <stop offset="0" stop-color="#611440" stop-opacity="0"/>
    <stop offset="1" stop-color="#611440"/>
  </linearGradient>
  <linearGradient id="grad60" x1="0" y1="0" x2="1" y2="0">
    <stop offset="0" stop-color="#611440" stop-opacity="0"/>
    <stop offset="1" stop-color="#611440"/>
  </linearGradient>
  <linearGradient id="grad61" x1="0" y1="0" x2="1" y2="0">
    <stop offset="0" stop-color="#611440" stop-opacity="0"/>
    <stop offset="1" stop-color="#611440"/>
  </linearGradient>
  <linearGradient id="grad62" x1="0" y1="0" x2="1" y2="0">
    <stop offset="0" stop-color="#611440" stop-opacity="0"/>
    <stop offset="1" stop-color="#611440"/>
  </linearGradient>
  <linearGradient id="grad63" x1="0" y1="0" x2="1" y2="0">
    <stop offset="0" stop-color="#611440" stop-opacity="0"/>
    <stop offset="1" stop-color="#611440"/>
  </linearGradient>
  <linearGradient id="grad64" x1="0" y1="0" x2="1" y2="0">
    <stop offset="0" stop-color="#611440" stop-opacity="0"/>
    <stop offset="1" stop-color="#611440"/>
  </linearGradient>
  <linearGradient id="grad65" x1="0" y1="0" x2="1" y2="0">
    <stop offset="0" stop-color="#611440" stop-opacity="0"/>
    <stop offset="1" stop-color="#611440"/>
  </linearGradient>
  <linearGradient id="grad66" x1="0" y1="0" x2="1" y2="0">
    <stop offset="0" stop-color="#611440" stop-opacity="0"/>
    <stop offset="1" stop-color="#611440"/>
  </linearGradient>
  <linearGradient id="grad67" x1="0" y1="0" x2="1" y2="0">
    <stop offset="0" stop-color="#611440" stop-opacity="0"/>
    <stop offset="1" stop-color="#611440"/>
  </linearGradient>
  <linearGradient id="grad68" x1="0" y1="0" x2="1" y2="0">
    <stop offset="0" stop-color="#611440" stop-opacity="0"/>
    <stop offset="1" stop-color="#611440"/>
  </linearGradient>
  <linearGradient id="grad69" x1="0" y1="0" x2="1" y2="0">
    <stop offset="0" stop-color="#611440" stop-opacity="0"/>
    <stop offset="1" stop-color="#611440"/>
  </linearGradient>
  <linearGradient id="grad70" x1="0" y1="0" x2="1" y2="0">
    <stop offset="0" stop-color="#611440" stop-opacity="0"/>
    <stop offset="1" stop-color="#611440"/>
  </linearGradient>
  <linearGradient id="grad71" x1="0" y1="0" x2="1" y2="0">
    <stop offset="0" stop-color="#611440" stop-opacity="0"/>
    <stop offset="1" stop-color="#611440"/>
  </linearGradient>
  <linearGradient id="grad72" x1="0" y1="0" x2="1" y2="0">
    <stop offset="0" stop-color="#611440" stop-opacity="0"/>
    <stop offset="1" stop-color="#611440"/>
  </linearGradient>
  <linearGradient id="grad73" x1="0" y1="0" x2="1" y2="0">
    <stop offset="0" stop-color="#611440" stop-opacity="0"/>
    <stop offset="1" stop-color="#611440"/>
  </linearGradient>
  <linearGradient id="grad74" x1="0" y1="0" x2="1" y2="0">
    <stop offset="0" stop-color="#611440" stop-opacity="0"/>
    <stop offset="1" stop-color="#611440"/>
  </linearGradient>
  <linearGradient id="grad75" x1="0" y1="0" x2="1" y2="0">
    <stop offset="0" stop-color="#611440" stop-opacity="0"/>
    <stop offset="1" stop-color="#611440"/>
  </linearGradient>
  <linearGradient id="grad76" x1="0" y1="0" x2="1" y2="0">
    <stop offset="0" stop-color="#611440" stop-opacity="0"/>
    <stop offset="1" stop-color="#611440"/>
  </linearGradient>
  <linearGradient id="grad77" x1="0" y1="0" x2="1" y2="0">
    <stop offset="0" stop-color="#611440" stop-opacity="0"/>
    <stop offset="1" stop-color="#611440"/>
  </linearGradient>
  <linearGradient id="grad78" x1="0" y1="0" x2="1" y2="0">
    <stop offset="0" stop-color="#611440" stop-opacity="0"/>
    <stop offset="1" stop-color="#611440"/>
  </linearGradient>
  <linearGradient id="grad79" x1="0" y1="0" x2="1" y2="0">
    <stop offset="0" stop-color="#611440" stop-opacity="0"/>
    <stop offset="1" stop-color="#611440"/>
  </linearGradient>
  <linearGradient id="grad80" x1="0" y1="0" x2="1" y2="0">
    <stop offset="0" stop-color="#611440" stop-opacity="0"/>
    <stop offset="1" stop-color="#611440"/>
  </linearGradient>
  <linearGradient id="grad81" x1="0" y1="0" x2="1" y2="0">
    <stop offset="0" stop-color="#611440" stop-opacity="0"/>
    <stop offset="1" stop-color="#611440"/>
  </linearGradient>
  <linearGradient id="grad82" x1="0" y1="0" x2="1" y2="0">
    <stop offset="0" stop-color="#611440" stop-opacity="0"/>
    <stop offset="1" stop-color="#611440"/>
  </linearGradient>
  <linearGradient id="grad83" x1="0" y1="0" x2="1" y2="0">
    <stop offset="0" stop-color="#611440" stop-opacity="0"/>
    <stop offset="1" stop-color="#611440"/>
  </linearGradient>
  <clipPath id="maskclip84" clipPathUnits="userSpaceOnUse">
    <path d="M 367.93 16.36 C 376.12 22.85 376.57 32.42 377.55 42.12 C 381.91 85.43 354.29 115.96 308.44 113.09 C 307.47 131.07 312.84 171.06 311.61 190.62 C 304.68 193.22 269.63 190.25 263.65 185.88 C 263.59 185.46 263.52 185.05 263.45 184.63 C 263.45 184.63 263.95 183.9 263.95 183.9 C 263.96 183.89 263.96 183.87 263.96 183.85 C 248.74 182.46 238.94 181.62 223.48 185.46 C 221.38 185.98 212.81 189.26 211.74 187.04 C 205.8 172.57 206.08 167.36 203.15 152.56 C 200.22 137.77 199.11 129.99 198.76 130.74 C 190.51 147.26 184.34 186.47 184.34 186.47 C 184.34 186.47 154.66 190.51 150.46 191.21 C 146.84 191.82 121.81 195.75 122.16 194.87 C 123.52 191.76 125.36 188.07 127.55 183.96 C 103.76 182.39 91.73 182.91 64.46 183.48 C 50.67 183.76 35.68 182.56 22.11 185.13 C 20.23 185.48 6.83 188.06 7 185.6 C 9.26 149.79 22.26 115.77 18.75 79.55 C 17.49 66.45 16.4 30.26 19.68 24.45 C 51.65 23.79 74.3 30.02 122.52 25.25 C 122.52 25.25 135.63 25.88 139.68 25.55 C 139.71 26.88 139.6 29.24 139.4 32.3 C 153.54 32.49 178.42 32.83 178.42 32.83 C 178.42 32.83 197.17 78.08 197.24 77.95 C 206.88 62.26 209.62 46.64 215.62 29.09 C 216.33 26.99 243.56 29.38 252.17 29.38 C 254.1 29.38 264.76 27.91 270.06 27.67 C 269.78 22.95 269.37 19.26 268.85 16.66 C 268.85 5.54 350.13 2.25 367.93 16.36 Z M 230.43 108.88 C 230.43 108.88 244.59 145.29 255.32 159.29 C 256.81 161.23 262.26 170.97 264.87 177.62 C 268.47 148.86 272.02 70.42 270.35 33.07 C 255.44 61.07 230.43 108.88 230.43 108.88 Z M 136.35 69.83 C 115.53 68.31 94.51 66.79 73.61 66.49 C 71.74 66.47 67.24 64.49 67.29 66.85 C 67.38 70.85 59.69 93.69 61.95 93.65 C 67.44 93.53 106.39 90.92 106 92.83 C 105.54 95.97 106.83 122.02 104.85 122.06 C 95.68 122.25 69.35 120.15 57.57 119.35 C 57.66 123.73 54.29 138.85 55.38 143.67 C 72.09 143.33 93.67 140.1 110.36 139.75 C 114.67 139.66 134.65 137.43 134.11 138.6 C 130.4 149.56 131.11 160.72 134.28 171.67 C 146.18 150.4 161.25 124.78 162.66 113.41 C 154.23 96.44 143.09 67.08 137.77 52.68 C 137.27 58.57 136.75 64.58 136.35 69.83 Z M 306.32 45.87 C 306.32 45.87 305.97 45.77 305.97 45.77 C 304.73 55.24 303.32 64.93 302.38 74.4 C 302.38 83.33 336.16 75.68 341.19 56.65 C 346.44 36.8 314.92 44.08 306.32 45.87 Z M 306.32 45.87"/>
  </clipPath>
</defs>
<g class="layer-path" filter="url(#fx2)">
<path d="M 367.93 16.36 C 376.12 22.85 376.57 32.42 377.55 42.12 C 381.91 85.43 354.29 115.96 308.44 113.09 C 307.47 131.07 312.84 171.06 311.61 190.62 C 304.68 193.22 269.63 190.25 263.65 185.88 C 263.59 185.46 263.52 185.05 263.45 184.63 C 263.45 184.63 263.95 183.9 263.95 183.9 C 263.96 183.89 263.96 183.87 263.96 183.85 C 248.74 182.46 238.94 181.62 223.48 185.46 C 221.38 185.98 212.81 189.26 211.74 187.04 C 205.8 172.57 206.08 167.36 203.15 152.56 C 200.22 137.77 199.11 129.99 198.76 130.74 C 190.51 147.26 184.34 186.47 184.34 186.47 C 184.34 186.47 154.66 190.51 150.46 191.21 C 146.84 191.82 121.81 195.75 122.16 194.87 C 123.52 191.76 125.36 188.07 127.55 183.96 C 103.76 182.39 91.73 182.91 64.46 183.48 C 50.67 183.76 35.68 182.56 22.11 185.13 C 20.23 185.48 6.83 188.06 7 185.6 C 9.26 149.79 22.26 115.77 18.75 79.55 C 17.49 66.45 16.4 30.26 19.68 24.45 C 51.65 23.79 74.3 30.02 122.52 25.25 C 122.52 25.25 135.63 25.88 139.68 25.55 C 139.71 26.88 139.6 29.24 139.4 32.3 C 153.54 32.49 178.42 32.83 178.42 32.83 C 178.42 32.83 197.17 78.08 197.24 77.95 C 206.88 62.26 209.62 46.64 215.62 29.09 C 216.33 26.99 243.56 29.38 252.17 29.38 C 254.1 29.38 264.76 27.91 270.06 27.67 C 269.78 22.95 269.37 19.26 268.85 16.66 C 268.85 5.54 350.13 2.25 367.93 16.36 Z M 230.43 108.88 C 230.43 108.88 244.59 145.29 255.32 159.29 C 256.81 161.23 262.26 170.97 264.87 177.62 C 268.47 148.86 272.02 70.42 270.35 33.07 C 255.44 61.07 230.43 108.88 230.43 108.88 Z M 136.35 69.83 C 115.53 68.31 94.51 66.79 73.61 66.49 C 71.74 66.47 67.24 64.49 67.29 66.85 C 67.38 70.85 59.69 93.69 61.95 93.65 C 67.44 93.53 106.39 90.92 106 92.83 C 105.54 95.97 106.83 122.02 104.85 122.06 C 95.68 122.25 69.35 120.15 57.57 119.35 C 57.66 123.73 54.29 138.85 55.38 143.67 C 72.09 143.33 93.67 140.1 110.36 139.75 C 114.67 139.66 134.65 137.43 134.11 138.6 C 130.4 149.56 131.11 160.72 134.28 171.67 C 146.18 150.4 161.25 124.78 162.66 113.41 C 154.23 96.44 143.09 67.08 137.77 52.68 C 137.27 58.57 136.75 64.58 136.35 69.83 Z M 306.32 45.87 C 306.32 45.87 305.97 45.77 305.97 45.77 C 304.73 55.24 303.32 64.93 302.38 74.4 C 302.38 83.33 336.16 75.68 341.19 56.65 C 346.44 36.8 314.92 44.08 306.32 45.87 Z" fill="var(--color-ffffff, #FFFFFF)"/>
<path d="M 367.93 16.36 C 376.12 22.85 376.57 32.42 377.55 42.12 C 381.91 85.43 354.29 115.96 308.44 113.09 C 307.47 131.07 312.84 171.06 311.61 190.62 C 304.68 193.22 269.63 190.25 263.65 185.88 C 263.59 185.46 263.52 185.05 263.45 184.63 C 263.45 184.63 263.95 183.9 263.95 183.9 C 263.96 183.89 263.96 183.87 263.96 183.85 C 248.74 182.46 238.94 181.62 223.48 185.46 C 221.38 185.98 212.81 189.26 211.74 187.04 C 205.8 172.57 206.08 167.36 203.15 152.56 C 200.22 137.77 199.11 129.99 198.76 130.74 C 190.51 147.26 184.34 186.47 184.34 186.47 C 184.34 186.47 154.66 190.51 150.46 191.21 C 146.84 191.82 121.81 195.75 122.16 194.87 C 123.52 191.76 125.36 188.07 127.55 183.96 C 103.76 182.39 91.73 182.91 64.46 183.48 C 50.67 183.76 35.68 182.56 22.11 185.13 C 20.23 185.48 6.83 188.06 7 185.6 C 9.26 149.79 22.26 115.77 18.75 79.55 C 17.49 66.45 16.4 30.26 19.68 24.45 C 51.65 23.79 74.3 30.02 122.52 25.25 C 122.52 25.25 135.63 25.88 139.68 25.55 C 139.71 26.88 139.6 29.24 139.4 32.3 C 153.54 32.49 178.42 32.83 178.42 32.83 C 178.42 32.83 197.17 78.08 197.24 77.95 C 206.88 62.26 209.62 46.64 215.62 29.09 C 216.33 26.99 243.56 29.38 252.17 29.38 C 254.1 29.38 264.76 27.91 270.06 27.67 C 269.78 22.95 269.37 19.26 268.85 16.66 C 268.85 5.54 350.13 2.25 367.93 16.36 Z M 230.43 108.88 C 230.43 108.88 244.59 145.29 255.32 159.29 C 256.81 161.23 262.26 170.97 264.87 177.62 C 268.47 148.86 272.02 70.42 270.35 33.07 C 255.44 61.07 230.43 108.88 230.43 108.88 Z M 136.35 69.83 C 115.53 68.31 94.51 66.79 73.61 66.49 C 71.74 66.47 67.24 64.49 67.29 66.85 C 67.38 70.85 59.69 93.69 61.95 93.65 C 67.44 93.53 106.39 90.92 106 92.83 C 105.54 95.97 106.83 122.02 104.85 122.06 C 95.68 122.25 69.35 120.15 57.57 119.35 C 57.66 123.73 54.29 138.85 55.38 143.67 C 72.09 143.33 93.67 140.1 110.36 139.75 C 114.67 139.66 134.65 137.43 134.11 138.6 C 130.4 149.56 131.11 160.72 134.28 171.67 C 146.18 150.4 161.25 124.78 162.66 113.41 C 154.23 96.44 143.09 67.08 137.77 52.68 C 137.27 58.57 136.75 64.58 136.35 69.83 Z M 306.32 45.87 C 306.32 45.87 305.97 45.77 305.97 45.77 C 304.73 55.24 303.32 64.93 302.38 74.4 C 302.38 83.33 336.16 75.68 341.19 56.65 C 346.44 36.8 314.92 44.08 306.32 45.87 Z" fill="none" stroke="url(#grad0)" stroke-width="10" stroke-linejoin="round" mask="url(#strokemask1)"/>
</g>
<g class="layer-mask">
<g clip-path="url(#maskclip84)">
<g class="layer-hexline-weave-1">
<g class="layer-rectangle">
<rect x="3" y="2" width="376.37" height="196" fill="#0A040B"/>
</g>
<g class="layer-rectangle">
<rect x="3" y="2" width="377" height="196" fill="url(#pat257b805755394acba6d598aa0f6c04dc)"/>
</g>
</g>
</g>
</g>
</svg>